<svg width="2144" height="721" viewBox="0 0 2144 721" xmlns:xlink="http://www.w3.org/1999/xlink" xmlns="http://www.w3.org/2000/svg"><defs><clipPath id="mask_1"><use xlink:href="#path_1"/></clipPath><path d="M0 0h2144v721H0V0z" id="path_1"/></defs><g id="yiu-logo"><path d="M0 0h2144v721H0V0z" id="Background" fill="none" fill-rule="evenodd" stroke="none"/><g clip-path="url(#mask_1)"><g id="g20" transform="translate(897 523.983)" fill="#7B32A8" fill-rule="evenodd" stroke="none"><path d="M45.734 136.952c-22.195-7.546-39.211-26.782-44.39-50.013C-1.319 75.102.16 54.387 4.156 43.733c4.29-10.95 13.612-23.23 23.526-30.48 20.715-15.537 50.013-17.609 74.575-5.18 8.73 4.44 23.822 18.792 23.083 22.047-.296 1.184-4.735 4.735-10.062 7.843l-9.47 5.474-6.806-6.806c-7.99-7.99-17.46-11.69-29.593-11.69-25.599 0-42.467 15.981-44.094 41.58-.888 14.944 2.22 25.301 10.21 34.475 8.877 10.062 15.684 13.169 31.22 13.909 11.245.592 13.613.148 20.715-2.959 4.291-2.072 10.21-6.215 13.169-9.174l5.327-5.475 10.505 6.066 10.654 6.215-2.811 3.995c-4.439 6.215-15.537 15.833-21.899 19.088-16.425 8.434-39.507 10.209-56.671 4.291z" transform="translate(307.729)" id="path2"/><path d="M.05 134.353c.296-1.184 10.802-31.961 23.378-68.212L46.364 0 62.64.444l16.277.444 22.49 64.365c12.43 35.364 23.083 65.845 23.527 67.768.888 3.255.592 3.255-11.689 3.255h-12.577l-4.144-12.133-4.29-12.281H34.821l-3.995 11.837-3.995 11.838-13.613.443c-11.245.296-13.613 0-13.17-1.627zm82.565-48.237c0-2.22-18.052-54.007-19.236-55.34-1.035-1.183-19.235 50.753-19.235 54.896 0 1.332 4.883 1.776 19.235 1.776 10.654 0 19.236-.592 19.236-1.332z" transform="translate(177.63 2.599)" id="path4"/><path d="M2.22 129.914C4.29 123.995 37.88 27.67 44.538 8.582L47.498 0h15.98c13.76 0 16.128.296 17.016 2.663.591 1.332 10.95 31.073 23.23 66.141 12.281 35.068 22.639 64.513 23.083 65.549.444 1.48-2.22 1.776-12.281 1.48l-13.022-.444-1.923-5.919c-1.184-3.255-3.107-8.73-4.44-12.133l-2.367-6.363H35.956l-4.142 12.577-3.995 12.578H0l2.22-6.215zm81.677-44.39c-.444-1.036-4.883-14.056-10.062-29.001-5.03-14.945-9.766-26.634-10.358-25.894-.591.592-4.883 12.873-9.617 27.078-4.735 14.204-8.878 26.781-9.322 27.817-.444 1.332 4.143 1.776 19.68 1.776 15.536 0 20.123-.444 19.679-1.776z" transform="translate(439.43 2.747)" id="path6"/><path d="M0 68.064V0l34.476.444c31.665.444 34.92.74 42.762 3.847 14.945 6.067 30.185 22.343 36.252 38.767 15.24 41.283-10.506 86.412-52.528 91.887-5.475.592-21.455 1.183-35.364 1.331H0V68.064zm68.656 39.951C84.045 102.392 93.22 87.448 93.22 68.36c0-19.087-6.955-31.96-21.16-39.21-7.694-3.996-10.061-4.44-27.67-5.032l-19.235-.74v87.744H42.91c14.205 0 19.236-.592 25.746-3.107z" transform="translate(581.33 2.599)" id="path8"/><path d="M0 68.064V0h81.381v23.674H25.154v31.073h51.788V78.422H25.154v32.552h57.707v25.155H0V68.064z" transform="translate(718.938 2.747)" id="path10"/><path d="M0 68.064V0h13.76l13.614.148L46.46 31.813c10.358 17.46 19.532 31.812 20.124 31.812.592 0 9.617-14.352 20.123-31.812L105.796 0h25.894v136.129h-25.155l-.295-44.686-.444-44.834-19.088 31.517c-10.358 17.312-19.68 31.221-20.567 30.925-.888-.296-10.062-14.353-20.272-31.22L27.374 47.052l-.444 44.538-.296 44.538H0V68.064z" transform="translate(821.034 2.747)" id="path12"/><path d="M44.39 108.755V81.529L22.195 41.58C10.062 19.678 0 1.331 0 .887 0 .444 6.214 0 13.76 0h13.614l14.5 28.113c7.99 15.389 15.093 28.114 15.537 28.114.592 0 7.398-12.43 15.092-27.522C80.197 13.613 87.3.888 88.188.592 89.075.148 95.438 0 102.54.296l12.725.444-22.787 40.986-22.934 41.135v53.268H44.39v-27.374z" transform="translate(969 2.747)" id="path14"/><path d="M0 3.7V0h110.799v7.398H0V3.7z" transform="translate(0 67.852)" id="path16"/><path d="M0 3.7V0h110.799v7.401H0v-3.7z" transform="translate(1136.201 67.852)" id="path18"/></g><g id="g34" transform="translate(400.394 1.055)" fill="#0DD2FF" fill-rule="evenodd" stroke="none"><path d="M65.734 161c-32.3-6.1-58.5-32.4-64.3-64.5-5-27.8 3.2-54.6 22.7-73.7 8.1-7.9 13.9-12.1 22.6-16.1 12.1-5.6 18.1-6.7 35.3-6.7 14.9.1 15.9.2 25 3.3 26.7 9.3 46 29.8 53.1 56.7 2.7 10.2 3 29.6.6 39.7-3.6 14.9-10.7 27.4-21.901 38.8-10.599 10.7-22.599 17.6-37.8 21.6-8.3 2.2-26 2.6-35.3.9zm22.8-37.5c23-3.8 38.2-25.5 34.6-49.7-3.4-22.9-21.8-37.7-45-36-10.9.7-18 3.7-25.5 10.7-9.4 8.8-13.5 18.6-13.6 32-.1 22 13.8 39.5 34 42.9 7.6 1.2 8.7 1.2 15.5.1z" transform="translate(650.572 236.445)" id="path22"/><path d="M45.2 157.5c-10.7-2.4-18.6-6.9-27.1-15.4-5.3-5.3-8.5-9.6-10.7-14.2C1 114.4.9 113.9.5 54.3L0 0h39.1l.3 49.8c.3 44.2.6 50.2 2.1 54.3 2.6 6.8 7.3 11.8 14.1 15 5.3 2.5 7.3 2.9 14.8 2.9 15.9 0 26.7-6.6 31.9-19.6 2.4-5.9 2.4-6 2.7-54.1l.3-48.3h38.9v155h-39V136.7l-5.4 5.9c-5.8 6.5-13.4 11.1-22.6 13.9-7.9 2.3-24 2.8-32 1z" transform="translate(839.406 239.945)" id="path24"/><path d="M65.5 197.9c-20.7-3-31.4-12.1-37.1-31.4-1.4-5.1-1.8-11.9-2.1-45.7L25.8 81H0V43h25.9l.3-15.7.3-15.7 19-5.8C56 2.6 64.6 0 64.8 0c.1 0 .2 9.7.2 21.5V43h35v38H64.9l.3 35.9c.3 34.5.4 36.1 2.4 38.8 3.7 5.1 7.6 6.3 20.7 6.3H100v35.7l-8.2.6c-10.4.8-18.6.7-26.3-.4z" transform="translate(1008.606 196.945)" id="path26"/><path d="M73.2 174.1v-42.9L40.1 71.9C21.9 39.2 5.4 9.7 3.5 6.3L0 0h47l23.3 45c12.8 24.8 23.6 45 24 45 .3 0 11.2-20.2 24-45l23.4-45H165c12.7 0 23.2.2 23.2.5 0 .2-16.4 29.8-36.5 65.6l-36.5 65.2V217h-42v-42.9z" transform="translate(480.406 177.945)" id="path28"/><path d="M0 108.5V0h39v39.5c0 21.7.2 39.5.4 39.5.3 0 3-2.6 6-5.8 6.8-7.1 12.9-10.6 23.2-13.2 9.4-2.4 23.5-2.6 31.9-.5 15.7 4 29.1 14.7 35.8 28.5 7.2 14.7 7.1 13.4 7.5 74.3l.3 54.7h-39l-.3-50.2-.3-50.3-2.4-5.3C96.9 99.7 84.5 93 70.8 94.3c-12.5 1.2-21.1 6.2-26.3 15.2-5 8.4-5.5 14.2-5.5 62.8V217H0V108.5z" transform="translate(1137.606 177.945)" id="path30"/><path d="M.006 133.845c-.9-1.5 97.7-100.2 107.1-107.3 14.6-11 30.6-18.6 48.7-23.2 13.9-3.5 39.5-4.4 53.8-2 11.4 2 27.1 7.1 37.2 12.2 24.8 12.4 47.4 34.8 59.8 59.4 7.3 14.6 12.5 34.1 13.7 52.1l.6 9.9h-160.1c-116.7 0-160.3-.3-160.8-1.1z" id="path32"/></g><g id="g38" transform="translate(400 133)"><path d="M1.2 2.8C.5 2.1 0 1.2 0 .8 0 .4 72.2 0 160.5 0 320.3 0 321 0 321 2s-.7 2-159.3 2C39.1 4 2.1 3.7 1.2 2.8z" id="path36" fill="#08C8FF" fill-rule="evenodd" stroke="none"/></g><g id="g42" transform="translate(.7 399)"><path d="M.7 181.8c1.9-26.4 10.3-50.7 24.2-70.6 2.8-3.9 26.1-28.2 56.8-59L133.8 0 228 94.2c72.6 72.6 94 94.5 93.1 95.5-.8 1.1-31.1 1.3-161.1 1.3H0l.7-9.2z" id="path40" fill="#A443E2" fill-rule="evenodd" stroke="none"/></g><g id="g46" transform="translate(399.5 134)"><path d="M94 94 0 0h321.5v4.6c0 8.1-3 25.5-6.1 35.2-5.1 15.8-11.5 28.4-21.2 41.2-3.8 5.1-104.5 107-105.7 107-.3 0-42.8-42.3-94.5-94z" id="path44" fill="#00B3FE" fill-rule="evenodd" stroke="none"/></g><g id="g52" transform="translate(173 173.164)" fill="#A7EB00" fill-rule="evenodd" stroke="none"><path d="M94.2 281.536 0 187.336l94.3-94.3c74.3-74.3 94.5-94 95.5-93 1.8 1.8 1.8 373.1-.1 374.6-1 .9-22.9-20.5-95.5-93.1z" id="path48"/><path d="M67.7 220c-33.7-5.3-56.6-24.4-64.9-53.7-2.1-7.7-2.1-9.2-2.5-87L0 0h42l.3 77.3.3 77.2 2.2 4.8c3.7 7.9 7.8 12.3 14.9 15.8 17.4 8.6 45.9 5 55.2-6.9 8.4-10.7 8.2-8.1 8.2-93.4V0h42.1l-.3 80.2c-.4 79.9-.4 80.3-2.6 87.7-9.8 32.1-37.8 51.4-76.2 52.6-6.9.2-15.2 0-18.4-.5z" transform="translate(1804.9 5.836)" id="path50"/></g><g id="g56" transform="translate(361 171.5)"><path d="M0 188.8V0l94.5 94.5L189 189l-94.2 94.2C42.9 335.1.4 377.5.3 377.5c-.2 0-.3-84.9-.3-188.7z" id="path54" fill="#A3BA24" fill-rule="evenodd" stroke="none"/></g><g id="g64" transform="translate(1.699 .4)" fill="#FF005C" fill-rule="evenodd" stroke="none"><path d="M0 108.5V0h41v217H0V108.5z" transform="translate(1717.301 178.6)" id="path58"/><path d="M0 81.5V4h39v17.2l5.8-6C54.7 4.9 67.7 0 85 0c26.2 0 46 14 54.7 38.7l2.8 7.8.3 56.3.3 56.2H104v-49.4c0-55-.1-55.8-6.7-63.5-1.8-2.2-5.9-5.2-9.1-6.8-5-2.5-6.8-2.8-15.2-2.8-8.2 0-10.3.4-15.2 2.7-7.2 3.4-13.1 9.5-16 16.6-2.3 5.6-2.3 6.3-2.6 54.5l-.3 48.7H0V81.5z" transform="translate(1798.301 236.6)" id="path60"/><path d="M80.601 269.3c-43.7-43.9-53-53.7-58.1-61.4-15.5-23.5-22.6-46.9-22.5-74.8 0-36.8 13.9-69.8 40.1-95.3 23.4-22.8 54.2-35.9 88-37.4l7.2-.4v159.7c0 130.6-.2 159.9-1.3 160.7-1 .9-12.9-10.5-53.4-51.1z" id="path62"/></g><g id="g68" transform="translate(.8 587)"><path d="M110.7 131.5c-17.9-3.4-36-10.5-50.2-19.9C25.4 88.5 4 51.8.7 8.8L0 0H322.7l-47 47.1c-25.9 25.9-50.8 50.3-55.6 54.3-16.2 13.8-32.9 22.4-53.9 27.8-10.3 2.7-13.4 3.1-29.5 3.4-13.1.2-20.2-.1-26-1.1z" id="path66" fill="#7B32A8" fill-rule="evenodd" stroke="none"/></g><g id="g72" transform="translate(134 .193)"><path d="M.2 161.207C.5 8.907.6.307 2.3.007c1.6-.3 1.7 7.8 1.7 159.1 0 158.2 0 159.4-2 161.2l-2 1.8.2-160.9z" id="path70" fill="#E9075C" fill-rule="evenodd" stroke="none"/></g><g id="g76" transform="translate(135 -.1)"><path d="M0 160.8V0l4.3.5c2.3.3 7.1.8 10.7 1.1 13.5 1.2 30.1 6.1 43.5 12.7 18.9 9.4 21.8 11.9 77.3 67.2l52.2 52.1-94 94-94 94V160.8z" id="path74" fill="#D80D5C" fill-rule="evenodd" stroke="none"/></g></g></g></svg>