<svg width="50" height="50" viewBox="0 0 50 50" xmlns="http://www.w3.org/2000/svg"><g id="Group" fill-rule="evenodd" stroke="none"><path d="M0 9.298c-.062-.104 6.78-6.96 7.432-7.454A9.33 9.33 0 0 1 10.81.232c.964-.243 2.74-.305 3.733-.139.79.14 1.88.494 2.581.848 1.72.861 3.289 2.417 4.15 4.126.506 1.015.867 2.37.95 3.62l.042.687h-11.11C3.06 9.374.036 9.354 0 9.298z" transform="translate(27.733 .08)" id="path32" fill="#0DD2FF"/><path d="M.083.195C.035.145 0 .083 0 .055 0 .029 5.01 0 11.137 0c11.087 0 11.136 0 11.136.139s-.049.139-11.053.139C2.713.278.146.257.083.195z" transform="translate(27.706 9.246)" id="path36" fill="#08C8FF"/><path d="M.049 12.63c.131-1.835.714-3.523 1.679-4.905.194-.271 1.81-1.96 3.94-4.099L9.285 0l6.536 6.544c5.038 5.043 6.523 6.565 6.46 6.634-.056.076-2.158.09-11.178.09H0l.049-.639z" transform="translate(0 27.725)" id="path40" fill="#A443E2"/><path d="M6.522 6.53 0 0H22.307v.32c0 .562-.207 1.771-.422 2.445-.354 1.097-.798 1.973-1.472 2.862-.263.354-7.25 7.433-7.334 7.433-.02 0-2.97-2.939-6.557-6.53z" transform="translate(27.671 9.316)" id="path44" fill="#00B3FE"/><path d="M6.536 19.558 0 13.014l6.543-6.551C11.7 1.302 13.1-.067 13.17.003c.124.125.124 25.918-.007 26.022-.07.063-1.59-1.424-6.627-6.467z" transform="translate(11.955 12.036)" id="path48" fill="#A7EB00"/><path d="M0 13.116V0l6.557 6.565 6.557 6.564-6.536 6.544C2.977 23.28.028 26.224.02 26.224.007 26.224 0 20.326 0 13.116z" transform="translate(25 11.92)" id="path54" fill="#A3BA24"/><path d="M5.593 18.708c-3.033-3.05-3.678-3.73-4.032-4.266C.486 12.81-.007 11.184.001 9.246c0-2.556.964-4.849 2.781-6.62C4.406 1.042 6.543.132 8.89.028l.5-.028v11.094c0 9.072-.015 11.108-.091 11.164-.07.062-.895-.73-3.705-3.55z" transform="translate(.07 .035)" id="path62" fill="#FF005C"/><path d="M7.681 9.135c-1.242-.236-2.498-.73-3.483-1.382C1.762 6.148.278 3.598.048.61L0 0h22.392L19.13 3.272c-1.797 1.8-3.525 3.494-3.858 3.772-1.124.959-2.283 1.556-3.74 1.931-.715.188-.93.216-2.047.236-.909.014-1.401-.007-1.804-.076z" transform="translate(.007 40.785)" id="path66" fill="#7B32A8"/><path d="M.014 11.199C.034.619.042.02.16 0 .27-.02.278.542.278 11.053c0 10.99 0 11.073-.14 11.198L0 22.376l.014-11.177z" transform="translate(9.25 .02)" id="path70" fill="#E9075C"/><path d="M0 11.17V0l.298.035c.16.02.493.055.743.076.937.084 2.088.424 3.018.882 1.312.653 1.513.827 5.364 4.669l3.622 3.619-6.523 6.53L0 22.34V11.17z" transform="translate(9.319)" id="path74" fill="#D80D5C"/></g></svg>