<svg width="1440" height="320" viewBox="0 0 1440 320" xmlns:xlink="http://www.w3.org/1999/xlink" xmlns="http://www.w3.org/2000/svg"><defs><clipPath id="mask_1"><use xlink:href="#path_1"/></clipPath><clipPath id="mask_2"><use xlink:href="#path_2"/></clipPath><clipPath id="mask_3"><use xlink:href="#path_3"/></clipPath><clipPath id="mask_4"><use xlink:href="#path_4"/></clipPath><path d="M0 0h1440v320H0V0z" id="path_1"/><path d="M0 0h140.65v262.72H0V0z" id="path_2"/><path d="M0 0h87.65v163.72H0V0z" id="path_3"/><path d="M0 0h76.185v142.305H0V0z" id="path_4"/></defs><g id="wave"><g id="Group-4"><g id="wave"><path d="M0 0h1440v320H0V0z" id="Background" fill="none" fill-rule="evenodd" stroke="none"/><g id="Mask-group"><path d="M0 0h1440v320H0V0z" id="path_1" fill="none" fill-rule="evenodd" stroke="none"/><g clip-path="url(#mask_1)"><g id="Group" transform="translate(0 132.943)"><path d="m0 .057 71.5 10c48 5.7 120.5 71 216.5 87.3 96 15.7 192 37.7 288 21.4 96-15.7 192-69.7 288-69.4 96-.3 192 53.7 288 53.4 96 .3 142.39-74.337 217-92.7-8.02 2.25 13.25-5.53 34.5-7.5 0 0 8.26-1.822 16.5-2.5 1.57-.129 20 0 20 0v188H0" id="Shape" fill="#A3BA24" fill-rule="evenodd" stroke="none"/></g></g></g></g><g id="Group" transform="translate(38.293 214.194)" fill-rule="evenodd" stroke="none"><path d="M3.935 88.464C1.328 82.852-.115 76.3.007 69.324c.355-20.354 13.897-36.647 30.22-36.362 4.587.08 8.909 1.46 12.744 3.856.46-20.635 14.557-37.11 31.547-36.814C91.57.302 105.12 17.38 104.758 38.12a45.82 45.82 0 0 1-.539 6.262c2.347.051 4.63.364 6.825.912 2.015-16.552 15.516-29.238 31.616-28.957 17.268.302 31.029 15.408 30.71 33.713-.111 6.344-1.898 12.245-4.906 17.235 2.833 5.325 4.404 11.512 4.289 18.086a38.006 38.006 0 0 1-.585 6.03L3.935 88.464z" id="Shape#1" fill="#038352"/><path d="M83.74 89.857 3.935 88.464C1.328 82.852-.115 76.3.007 69.324c.355-20.354 13.897-36.647 30.22-36.362 4.587.08 8.909 1.46 12.744 3.856.46-20.635 14.557-37.11 31.547-36.814 3.794.066 7.414.963 10.746 2.546L83.74 89.857z" id="Shape#2" fill="#04955E"/></g><g id="Group-Copy" transform="translate(388.66 201.366)" fill-rule="evenodd" stroke="none"><path d="M1.473 48.414C.231 44.984-.28 41.06.15 36.969c1.255-11.936 10.045-20.81 19.618-19.804 2.69.283 5.158 1.316 7.287 2.92C28.385 7.99 37.512-.964 47.476.083c10 1.051 17.081 11.78 15.803 23.942a26.97 26.97 0 0 1-.638 3.65c1.375.15 2.7.452 3.962.886 2.033-9.618 10.615-16.375 20.057-15.383 10.127 1.065 17.434 10.644 16.305 21.38-.391 3.72-1.744 7.094-3.767 9.87 1.39 3.274 1.995 6.988 1.59 10.844a22.542 22.542 0 0 1-.653 3.511L1.473 48.413z" id="Shape#3" fill="#038352"/><path d="m48.276 53.333-46.803-4.92C.231 44.984-.28 41.06.15 36.97c1.255-11.936 10.045-20.81 19.618-19.804 2.69.283 5.158 1.316 7.287 2.92C28.386 7.99 37.513-.964 47.477.083c2.225.234 4.305.947 6.181 2.048l-5.381 51.202z" id="Shape#4" fill="#04955E"/></g><g id="Group-Copy-2" transform="translate(729.901 137.243)" fill-rule="evenodd" stroke="none"><path d="M6.505 70.544c-2.63-3.256-4.648-7.32-5.71-11.918C-2.3 45.212 3.92 32.305 14.677 29.82c3.023-.698 6.085-.5 8.994.445C20.596 16.65 27.15 3.532 38.349.946c11.238-2.594 22.924 6.397 26.08 20.066.325 1.407.546 2.81.67 4.197a20.953 20.953 0 0 1 4.63-.519C68.34 13.5 75.125 2.966 85.736.516c11.38-2.627 22.883 5.034 25.668 17.098.965 4.181.758 8.346-.4 12.113 2.73 3.03 4.774 6.833 5.774 11.166.313 1.357.512 2.712.603 4.053L6.505 70.544z" id="Shape#5" fill="#038352"/><path d="M59.102 57.9 6.505 70.043c-2.63-3.256-4.648-7.32-5.71-11.918C-2.3 44.711 3.92 31.804 14.677 29.32c3.023-.698 6.085-.5 8.994.445C20.596 16.15 27.15 3.031 38.349.446c2.5-.577 5.023-.581 7.468-.087L59.102 57.9z" transform="translate(0 .5)" id="Shape#6" fill="#04955E"/></g><g id="Group-Copy-3" transform="translate(1241.93 136.605)" fill-rule="evenodd" stroke="none"><path d="M10.506 85.597c-3.202-2.695-5.959-6.3-7.878-10.61-5.6-12.576-1.956-26.433 8.13-30.924 2.835-1.262 5.878-1.651 8.914-1.28-5.617-12.778-1.685-26.906 8.814-31.58 10.536-4.692 23.723 1.904 29.429 14.72a30.928 30.928 0 0 1 1.46 3.991c1.453-.639 2.941-1.1 4.444-1.392-3.497-10.72 1.153-22.355 11.102-26.784 10.67-4.751 23.423.575 28.459 11.886 1.745 3.92 2.336 8.048 1.919 11.966 3.258 2.454 5.989 5.797 7.798 9.86a25.677 25.677 0 0 1 1.365 3.863L10.506 85.597z" id="Shape#7" fill="#038352"/><path d="M59.82 53.95 10.506 75.906c-3.202-2.695-5.959-6.3-7.878-10.61-5.6-12.577-1.956-26.434 8.13-30.925 2.835-1.261 5.878-1.65 8.914-1.278-5.617-12.78-1.685-26.907 8.814-31.582A17.577 17.577 0 0 1 35.8.001L59.82 53.95z" transform="translate(0 9.691)" id="Shape#8" fill="#04955E"/></g></g><g id="Tree-1" transform="translate(537 29)"><path d="M0 0h140.65v262.72H0V0z" id="Background#1" fill="none" fill-rule="evenodd" stroke="none"/><g id="Mask-group"><path d="M0 0h140.65v262.72H0V0z" id="path_2" fill="none" fill-rule="evenodd" stroke="none"/><g clip-path="url(#mask_2)"><g id="Group" transform="translate(.01 -.015)"><g id="layer1" fill-rule="evenodd" stroke="none"><path d="M47.432 23.716c0 13.098-10.618 23.716-23.716 23.716S0 36.814 0 23.716 10.618 0 23.716 0s23.716 10.618 23.716 23.716z" transform="translate(62.969 100.786)" id="path5110" fill="#627D44"/><path d="M96.418 48.21c0 26.624-21.584 48.208-48.209 48.208C21.584 96.418 0 74.834 0 48.21 0 21.584 21.584 0 48.21 0c26.624 0 48.208 21.584 48.208 48.21z" transform="translate(2.61)" id="path5108" fill="#627D44"/><path d="M80.242 40.12c0 22.16-17.963 40.122-40.121 40.122S0 62.279 0 40.12 17.963 0 40.12 0C62.28 0 80.243 17.963 80.243 40.12z" transform="translate(0 91.441)" id="path5099" fill="#627D44"/><path d="M92.374 46.187c0 25.508-20.678 46.187-46.187 46.187C20.679 92.374 0 71.696 0 46.187 0 20.679 20.678 0 46.187 0c25.508 0 46.187 20.678 46.187 46.187z" transform="translate(48.27 23.163)" id="path5101" fill="#627D44"/><path d="M4.531 0C3.005 0 1.481.059 0 .227l2.492 5.286a39.92 39.92 0 0 1 7.023-.604c9.574 0 18.297 3.409 25.147 9.061C27.394 5.41 16.641 0 4.531 0z" transform="translate(88.59 29.011)" id="path5139" fill="#6A945C"/><g id="g5103" transform="translate(26.305 41.694)" fill="#8F4B36"><path d="m50.704 142.603-15.613-.038c1.14-22.176 2.303-44.2 1.996-66.202-.214-12.823-.612-25.504-3.905-37.553-2.115-7.799-5.93-15.237-11.51-21.26C15.45 10.807 7.645 5.43 0 0c8.142 4.654 16.43 9.223 23.605 15.573 6.508 5.791 11.448 13.336 14.579 21.605 4.7 12.439 6.532 25.728 7.95 38.61 2.502 22.264 3.538 44.638 4.57 66.815z" transform="translate(0 78.43)" id="path4875"/><path d="m.051 164.923 9.07-.326C6.767 125.341 7.279 85.43 18.724 47.863c3.516-11.521 8.07-22.833 15.126-32.586C38.641 8.676 44.733 2.607 52.54 0 44.61 2.21 38.04 8.036 32.858 14.521c-7.657 9.55-12.93 20.857-17.063 32.37C2.31 84.39-.431 125.128.051 164.921v.001z" transform="translate(37.338)" id="path4877"/><path d="m34.498 62.681 4.255 1.316c.547-2.16.349-4.128.025-5.768-.432-2.603-1.154-5.084-1.967-7.47-2.207-6.506-5.16-12.677-8.468-18.588-3.73-6.673-7.986-13.067-12.922-18.88C11.004 8.081 5.997 3.192 0 0c5.799 3.54 10.415 8.648 14.483 14.042 4.53 6.017 8.33 12.543 11.606 19.304 2.903 6.001 5.42 12.169 7.156 18.507.636 2.333 1.171 4.648 1.404 6.938.114 1.573.259 2.952-.152 3.89z" transform="translate(10.359 13.266)" id="path4879"/><path d="m.007 27.74 4.44-.358c-.395-2.547.266-5.392 1.18-8.224 1.186-3.546 2.997-6.922 5.383-9.866 2.524-3.102 5.731-5.73 9.488-7.216C24.743.379 29.65.289 34.23 1.488 29.78-.131 24.773-.545 20.07.826c-4.136 1.219-7.878 3.69-10.914 6.808-2.867 2.935-5.197 6.42-6.873 10.22C.948 20.794-.096 24.115.007 27.74z" transform="translate(41.2 83.126)" id="path5164"/></g><path d="M41.86 0C18.727 0 0 18.727 0 41.86c0 12.154 5.181 23.121 13.45 30.772A41.69 41.69 0 0 1 5.642 48.29c0-23.133 18.793-41.926 41.926-41.926 10.894 0 20.763 4.206 28.213 11.023C68.173 6.858 55.842 0 41.861 0h-.001z" transform="translate(8.36 5.496)" id="path5112" fill="#6A945C"/><path d="M34.698 0C15.525 0 0 15.525 0 34.698c0 9.587 3.911 18.287 10.194 24.57-3.986-5.651-6.273-12.554-6.273-19.996 0-19.173 15.525-34.698 34.698-34.698L34.698 0z" transform="translate(5.702 96.081)" id="path5117" fill="#6A945C"/></g></g></g></g></g><g id="Tree-1-Copy-2" transform="translate(1136 79)"><path d="M0 0h87.65v163.72H0V0z" id="Background#2" fill="none" fill-rule="evenodd" stroke="none"/><g id="Mask-group"><path d="M0 0h87.65v163.72H0V0z" id="path_3" fill="none" fill-rule="evenodd" stroke="none"/><g clip-path="url(#mask_3)"><g id="Group" transform="translate(.006 -.01)"><g id="layer1#1" fill-rule="evenodd" stroke="none"><path d="M29.558 14.78c0 8.161-6.616 14.778-14.779 14.778C6.617 29.558 0 22.942 0 14.78 0 6.617 6.617 0 14.78 0c8.161 0 14.778 6.617 14.778 14.78z" transform="translate(39.24 62.807)" id="path5110#1" fill="#627D44"/><path d="M60.085 30.043c0 16.592-13.45 30.042-30.042 30.042C13.45 60.085 0 46.635 0 30.043 0 13.45 13.45 0 30.043 0c16.591 0 30.042 13.45 30.042 30.043z" transform="translate(1.626)" id="path5108#1" fill="#627D44"/><path d="M50.005 25.002c0 13.809-11.194 25.003-25.003 25.003C11.194 50.005 0 38.81 0 25.002 0 11.194 11.194 0 25.002 0 38.81 0 50.005 11.194 50.005 25.002z" transform="translate(0 56.984)" id="path5099#1" fill="#627D44"/><path d="M57.565 28.782c0 15.897-12.886 28.783-28.782 28.783S0 44.679 0 28.783 12.886 0 28.782 0s28.783 12.886 28.783 28.782z" transform="translate(30.08 14.434)" id="path5101#1" fill="#627D44"/><path d="M2.824 0C1.873 0 .923.037 0 .141l1.553 3.294a24.877 24.877 0 0 1 4.376-.376c5.967 0 11.403 2.124 15.671 5.647C17.071 3.371 10.37 0 2.824 0z" transform="translate(55.206 18.079)" id="path5139#1" fill="#6A945C"/><g id="g5103#1" transform="translate(16.393 25.983)" fill="#8F4B36"><path d="m31.597 88.867-9.73-.024c.712-13.82 1.436-27.545 1.245-41.256-.134-7.99-.382-15.893-2.434-23.401-1.318-4.86-3.695-9.496-7.173-13.249C9.628 6.735 4.765 3.384 0 0c5.074 2.9 10.238 5.747 14.71 9.704 4.055 3.61 7.134 8.311 9.085 13.464 2.93 7.752 4.07 16.034 4.954 24.062 1.56 13.873 2.205 27.816 2.848 41.636z" transform="translate(0 48.876)" id="path4875#1"/><path d="m.032 102.775 5.653-.203c-1.468-24.463-1.15-49.334 5.982-72.745 2.192-7.18 5.03-14.229 9.427-20.307C24.08 5.406 27.876 1.624 32.74 0c-4.94 1.377-9.035 5.008-12.265 9.05C15.704 15 12.42 22.046 9.843 29.22 1.44 52.59-.268 77.978.032 102.776z" transform="translate(23.268)" id="path4877#1"/><path d="m21.498 39.061 2.652.82c.34-1.345.217-2.572.016-3.595-.27-1.622-.72-3.167-1.226-4.655-1.376-4.054-3.216-7.9-5.277-11.583-2.325-4.158-4.977-8.143-8.053-11.765C6.857 5.036 3.737 1.989 0 0c3.614 2.206 6.49 5.39 9.025 8.75 2.823 3.75 5.192 7.817 7.233 12.03 1.81 3.74 3.378 7.583 4.46 11.533.396 1.454.73 2.897.874 4.324.071.98.162 1.84-.094 2.425z" transform="translate(6.455 8.267)" id="path4879#1"/><path d="m.004 17.287 2.767-.223c-.246-1.588.166-3.36.735-5.125A19.722 19.722 0 0 1 6.861 5.79c1.573-1.933 3.572-3.57 5.913-4.496C15.419.236 18.477.18 21.331.927 18.558-.082 15.438-.339 12.507.515c-2.577.76-4.91 2.299-6.801 4.243a21.59 21.59 0 0 0-4.283 6.369c-.832 1.83-1.483 3.9-1.419 6.16z" transform="translate(25.675 51.802)" id="path5164#1"/></g><path d="M26.086 0C11.67 0 0 11.67 0 26.086a26.064 26.064 0 0 0 8.382 19.176 25.98 25.98 0 0 1-4.866-15.169c0-14.416 11.711-26.127 26.127-26.127 6.79 0 12.94 2.621 17.582 6.87C42.484 4.273 34.799 0 26.086 0z" transform="translate(5.21 3.425)" id="path5112#1" fill="#6A945C"/><path d="M21.623 0C9.675 0 0 9.675 0 21.623c0 5.974 2.438 11.396 6.353 15.311-2.485-3.522-3.91-7.823-3.91-12.46 0-11.949 9.675-21.624 21.623-21.624L21.623 0z" transform="translate(3.553 59.875)" id="path5117#1" fill="#6A945C"/></g></g></g></g></g><g id="Tree-1-Copy" transform="translate(120.583 72.115)"><path d="M0 0h76.185v142.305H0V0z" id="Background#3" fill="none" fill-rule="evenodd" stroke="none"/><g id="Mask-group"><path d="M0 0h76.185v142.305H0V0z" id="path_4" fill="none" fill-rule="evenodd" stroke="none"/><g clip-path="url(#mask_4)"><g id="Group" transform="translate(.005 -.008)"><g id="layer1#2" fill-rule="evenodd" stroke="none"><path d="M25.692 12.846c0 7.095-5.751 12.846-12.846 12.846S0 19.941 0 12.846 5.751 0 12.846 0s12.846 5.751 12.846 12.846z" transform="translate(34.108 54.592)" id="path5110#2" fill="#627D44"/><path d="M52.226 26.113c0 14.422-11.691 26.113-26.113 26.113C11.691 52.226 0 40.535 0 26.113 0 11.691 11.691 0 26.113 0c14.422 0 26.113 11.691 26.113 26.113z" transform="translate(1.414)" id="path5108#2" fill="#627D44"/><path d="M43.464 21.732c0 12.002-9.73 21.732-21.732 21.732C9.73 43.464 0 33.734 0 21.732 0 9.73 9.73 0 21.732 0c12.002 0 21.732 9.73 21.732 21.732z" transform="translate(0 49.53)" id="path5099#2" fill="#627D44"/><path d="M50.035 25.018c0 13.817-11.2 25.017-25.017 25.017S0 38.835 0 25.018 11.2 0 25.018 0c13.816 0 25.017 11.2 25.017 25.018z" transform="translate(26.146 12.546)" id="path5101#2" fill="#627D44"/><path d="M2.454 0C1.628 0 .802.032 0 .123l1.35 2.863a21.622 21.622 0 0 1 3.804-.327c5.186 0 9.91 1.846 13.621 4.908C14.838 2.93 9.014 0 2.455 0z" transform="translate(47.985 15.714)" id="path5139#2" fill="#6A945C"/><g id="g5103#2" transform="translate(14.248 22.584)" fill="#8F4B36"><path d="m27.464 77.243-8.456-.02c.617-12.013 1.247-23.942 1.08-35.86-.115-6.946-.33-13.815-2.115-20.34-1.145-4.225-3.212-8.254-6.234-11.517C8.369 5.854 4.14 2.941 0 0c4.41 2.52 8.9 4.996 12.786 8.435 3.525 3.137 6.2 7.224 7.897 11.703 2.546 6.737 3.538 13.936 4.306 20.914 1.355 12.06 1.916 24.178 2.475 36.19z" transform="translate(0 42.483)" id="path4875#2"/><path d="m.028 89.332 4.913-.176c-1.276-21.264-.999-42.882 5.2-63.23 1.905-6.241 4.372-12.368 8.194-17.651C20.93 4.699 24.23 1.412 28.458 0c-4.294 1.197-7.853 4.353-10.66 7.866-4.148 5.172-7.004 11.297-9.242 17.533C1.25 45.712-.234 67.778.028 89.332z" transform="translate(20.224)" id="path4877#2"/><path d="m18.686 33.952 2.305.713c.297-1.17.189-2.236.014-3.125-.234-1.41-.625-2.753-1.066-4.046-1.195-3.524-2.795-6.866-4.587-10.068-2.02-3.615-4.325-7.078-6.999-10.227C5.96 4.377 3.248 1.73 0 0c3.14 1.917 5.641 4.684 7.845 7.606 2.453 3.26 4.512 6.794 6.286 10.456 1.573 3.25 2.937 6.591 3.877 10.025.344 1.264.634 2.517.76 3.758.062.852.14 1.599-.082 2.107z" transform="translate(5.61 7.185)" id="path4879#2"/><path d="m.004 15.025 2.404-.193c-.213-1.38.145-2.92.64-4.455a17.143 17.143 0 0 1 2.916-5.344c1.367-1.68 3.104-3.103 5.14-3.909C13.401.205 16.06.157 18.54.806c-2.41-.877-5.123-1.101-7.67-.359-2.24.66-4.267 1.999-5.912 3.688a18.765 18.765 0 0 0-3.722 5.536c-.724 1.592-1.289 3.39-1.233 5.355z" transform="translate(22.317 45.026)" id="path5164#2"/></g><path d="M22.674 0C10.144 0 0 10.144 0 22.674a22.655 22.655 0 0 0 7.285 16.668 22.582 22.582 0 0 1-4.229-13.185c0-12.53 10.18-22.71 22.71-22.71 5.9 0 11.246 2.278 15.282 5.97C36.927 3.716 30.248 0 22.674 0z" transform="translate(4.528 2.977)" id="path5112#2" fill="#6A945C"/><path d="M18.795 0C8.409 0 0 8.41 0 18.795c0 5.192 2.119 9.905 5.522 13.308-2.16-3.061-3.398-6.8-3.398-10.83 0-10.386 8.41-18.795 18.794-18.795L18.795 0z" transform="translate(3.089 52.043)" id="path5117#2" fill="#6A945C"/></g></g></g></g></g></g></svg>